<svg width="21" height="21" viewBox="0 0 21 21" fill="none" xmlns="http://www.w3.org/2000/svg">
<path d="M10.2729 2.3252C5.70457 2.3252 2.0044 6.02537 2.0044 10.5937C2.0034 12.3294 2.54896 14.0214 3.56369 15.4296C4.57841 16.8377 6.01078 17.8907 7.6576 18.4389C8.07103 18.5109 8.22648 18.2628 8.22648 18.0454C8.22648 17.8494 8.21573 17.1987 8.21573 16.5058C6.13867 16.8886 5.60121 15.9997 5.43584 15.5342C5.34241 15.2961 4.93973 14.5626 4.58832 14.3659C4.29892 14.2112 3.88549 13.8284 4.57757 13.8185C5.22913 13.8077 5.69382 14.4179 5.84927 14.666C6.59344 15.9162 7.78163 15.5648 8.25707 15.3482C8.32984 14.8107 8.54647 14.4494 8.78461 14.2427C6.94485 14.0359 5.02242 13.3224 5.02242 10.1596C5.02242 9.26003 5.34241 8.51669 5.86994 7.93706C5.78726 7.73035 5.49786 6.88282 5.95263 5.74589C5.95263 5.74589 6.64471 5.52926 8.22648 6.59425C8.89959 6.40743 9.59506 6.3134 10.2936 6.31477C10.9964 6.31477 11.6993 6.40738 12.3608 6.59342C13.9425 5.51851 14.6346 5.74672 14.6346 5.74672C15.0894 6.88365 14.8 7.73117 14.7173 7.93789C15.244 8.51669 15.5648 9.25011 15.5648 10.1596C15.5648 13.3331 13.6325 14.0359 11.7919 14.2427C12.092 14.5006 12.3508 14.9967 12.3508 15.7723C12.3508 16.8778 12.3401 17.7667 12.3401 18.0462C12.3401 18.2628 12.4955 18.5208 12.909 18.4381C14.5501 17.8838 15.9762 16.8289 16.9864 15.4217C17.9967 14.0145 18.5403 12.326 18.5407 10.5937C18.5407 6.02537 14.8405 2.3252 10.2721 2.3252H10.2729Z" fill="#0B0909"/>
</svg>
