<svg width="20" height="20" viewBox="0 0 20 20" fill="none" xmlns="http://www.w3.org/2000/svg">
<path d="M19.3426 11.8929C19.2464 11.7965 19.1257 11.7281 18.9936 11.6951C18.8615 11.662 18.7228 11.6656 18.5926 11.7054C17.1625 12.1377 15.6419 12.174 14.1928 11.8103C12.7438 11.4466 11.4205 10.6965 10.3641 9.64011C9.30766 8.58369 8.55764 7.26044 8.19394 5.81138C7.83024 4.36231 7.86649 2.84172 8.29882 1.41163C8.33895 1.28132 8.34279 1.14253 8.30994 1.0102C8.27708 0.877872 8.20878 0.757001 8.11237 0.660588C8.01595 0.564175 7.89508 0.495869 7.76275 0.463015C7.63042 0.430162 7.49164 0.434004 7.36132 0.474129C5.38416 1.0798 3.64839 2.29362 2.40101 3.94288C1.31015 5.39118 0.644751 7.11498 0.479573 8.9206C0.314395 10.7262 0.655982 12.5421 1.46596 14.1643C2.27593 15.7865 3.52221 17.1507 5.06476 18.1037C6.60732 19.0566 8.38504 19.5605 10.1982 19.5588C12.3135 19.5653 14.3726 18.8777 16.0595 17.6013C17.7087 16.3539 18.9225 14.6182 19.5282 12.641C19.5679 12.5112 19.5715 12.373 19.5389 12.2413C19.5062 12.1095 19.4383 11.9891 19.3426 11.8929ZM15.1576 16.4032C13.569 17.5997 11.6017 18.1821 9.61784 18.0432C7.63395 17.9043 5.76702 17.0534 4.36071 15.6472C2.95439 14.241 2.10337 12.3741 1.9643 10.3902C1.82522 8.40637 2.40746 6.43903 3.60383 4.85038C4.38327 3.82106 5.39095 2.98667 6.54757 2.41288C6.48169 2.87528 6.44848 3.34175 6.4482 3.80882C6.45093 6.39384 7.47904 8.8722 9.30692 10.7001C11.1348 12.528 13.6132 13.5561 16.1982 13.5588C16.6662 13.5587 17.1336 13.5255 17.597 13.4594C17.0226 14.6163 16.1876 15.624 15.1576 16.4032Z" fill="#0B0909"/>
</svg>
