<svg width="17" height="16" viewBox="0 0 17 16" fill="none" xmlns="http://www.w3.org/2000/svg">
<path d="M3.89189 1.80639C3.89167 2.24498 3.71723 2.66552 3.40695 2.9755C3.09666 3.28548 2.67595 3.45949 2.23736 3.45928C1.79876 3.45906 1.37822 3.28462 1.06825 2.97433C0.758273 2.66404 0.584254 2.24333 0.584473 1.80474C0.584692 1.36615 0.759132 0.945607 1.06942 0.635631C1.3797 0.325656 1.80042 0.151636 2.23901 0.151856C2.6776 0.152075 3.09814 0.326515 3.40812 0.636801C3.71809 0.947086 3.89211 1.3678 3.89189 1.80639ZM3.9415 4.68385H0.634084V15.0361H3.9415V4.68385ZM9.16723 4.68385H5.87634V15.0361H9.13415V9.60363C9.13415 6.57734 13.0783 6.29621 13.0783 9.60363V15.0361H16.3443V8.47911C16.3443 3.37742 10.5067 3.56759 9.13415 6.07296L9.16723 4.68385Z" fill="#0077B5"/>
</svg>
