<svg width="25" height="25" viewBox="0 0 25 25" fill="none" xmlns="http://www.w3.org/2000/svg">
<path d="M7.5 2.5H17.5C18.2956 2.5 19.0587 2.81607 19.6213 3.37868C20.1839 3.94129 20.5 4.70435 20.5 5.5V19.5C20.5 20.2956 20.1839 21.0587 19.6213 21.6213C19.0587 22.1839 18.2956 22.5 17.5 22.5H7.5C6.70435 22.5 5.94129 22.1839 5.37868 21.6213C4.81607 21.0587 4.5 20.2956 4.5 19.5V5.5C4.5 4.70435 4.81607 3.94129 5.37868 3.37868C5.94129 2.81607 6.70435 2.5 7.5 2.5ZM7.5 4.5C7.23478 4.5 6.98043 4.60536 6.79289 4.79289C6.60536 4.98043 6.5 5.23478 6.5 5.5V19.5C6.5 19.7652 6.60536 20.0196 6.79289 20.2071C6.98043 20.3946 7.23478 20.5 7.5 20.5H17.5C17.7652 20.5 18.0196 20.3946 18.2071 20.2071C18.3946 20.0196 18.5 19.7652 18.5 19.5V5.5C18.5 5.23478 18.3946 4.98043 18.2071 4.79289C18.0196 4.60536 17.7652 4.5 17.5 4.5H7.5ZM9.5 5.5H15.5C15.7652 5.5 16.0196 5.60536 16.2071 5.79289C16.3946 5.98043 16.5 6.23478 16.5 6.5C16.5 6.76522 16.3946 7.01957 16.2071 7.20711C16.0196 7.39464 15.7652 7.5 15.5 7.5H9.5C9.23478 7.5 8.98043 7.39464 8.79289 7.20711C8.60536 7.01957 8.5 6.76522 8.5 6.5C8.5 6.23478 8.60536 5.98043 8.79289 5.79289C8.98043 5.60536 9.23478 5.5 9.5 5.5ZM9.5 17.5H11.5C11.7652 17.5 12.0196 17.6054 12.2071 17.7929C12.3946 17.9804 12.5 18.2348 12.5 18.5C12.5 18.7652 12.3946 19.0196 12.2071 19.2071C12.0196 19.3946 11.7652 19.5 11.5 19.5H9.5C9.23478 19.5 8.98043 19.3946 8.79289 19.2071C8.60536 19.0196 8.5 18.7652 8.5 18.5C8.5 18.2348 8.60536 17.9804 8.79289 17.7929C8.98043 17.6054 9.23478 17.5 9.5 17.5ZM9.5 13.5H15.5C15.7652 13.5 16.0196 13.6054 16.2071 13.7929C16.3946 13.9804 16.5 14.2348 16.5 14.5C16.5 14.7652 16.3946 15.0196 16.2071 15.2071C16.0196 15.3946 15.7652 15.5 15.5 15.5H9.5C9.23478 15.5 8.98043 15.3946 8.79289 15.2071C8.60536 15.0196 8.5 14.7652 8.5 14.5C8.5 14.2348 8.60536 13.9804 8.79289 13.7929C8.98043 13.6054 9.23478 13.5 9.5 13.5ZM9.5 9.5H15.5C15.7652 9.5 16.0196 9.60536 16.2071 9.79289C16.3946 9.98043 16.5 10.2348 16.5 10.5C16.5 10.7652 16.3946 11.0196 16.2071 11.2071C16.0196 11.3946 15.7652 11.5 15.5 11.5H9.5C9.23478 11.5 8.98043 11.3946 8.79289 11.2071C8.60536 11.0196 8.5 10.7652 8.5 10.5C8.5 10.2348 8.60536 9.98043 8.79289 9.79289C8.98043 9.60536 9.23478 9.5 9.5 9.5Z" fill="#1A1003" fill-opacity="0.5"/>
</svg>
