<svg width="21" height="21" viewBox="0 0 21 21" fill="none" xmlns="http://www.w3.org/2000/svg">
<path d="M18.9902 5.60556C18.3592 5.8847 17.6901 6.06808 17.005 6.14963C17.7268 5.71729 18.267 5.03729 18.5247 4.23628C17.8467 4.63979 17.1033 4.92257 16.3294 5.07554C15.809 4.51872 15.1192 4.14943 14.3672 4.02509C13.6153 3.90075 12.8433 4.02832 12.1714 4.38797C11.4994 4.74762 10.9651 5.3192 10.6515 6.01385C10.3379 6.7085 10.2626 7.4873 10.4372 8.22917C9.06213 8.16037 7.71686 7.80311 6.4888 7.1806C5.26073 6.55809 4.17732 5.68425 3.30893 4.61581C3.00158 5.14372 2.84006 5.74383 2.84093 6.35469C2.84093 7.55363 3.45197 8.61283 4.37888 9.23297C3.82986 9.21565 3.29293 9.06739 2.81281 8.80052V8.84269C2.81279 9.64133 3.08901 10.4154 3.59463 11.0336C4.10025 11.6518 4.80414 12.0761 5.58691 12.2345C5.07727 12.3727 4.54284 12.3931 4.02416 12.294C4.24486 12.9814 4.67507 13.5826 5.25451 14.0133C5.83396 14.4441 6.53363 14.6828 7.25551 14.696C6.53809 15.2595 5.71663 15.676 4.83812 15.9217C3.9596 16.1674 3.04126 16.2376 2.13562 16.1281C3.71634 17.1446 5.55641 17.6843 7.43576 17.6826C13.7976 17.6826 17.2753 12.4131 17.2753 7.84303C17.2753 7.69419 17.272 7.5437 17.2654 7.3957C17.9421 6.90649 18.5262 6.29975 18.9902 5.60556Z" fill="#1DA1F2"/>
</svg>
